<?xml version="1.0" encoding="utf-8"?>
<!-- Generator: Adobe Illustrator 26.2.0, SVG Export Plug-In . SVG Version: 6.00 Build 0)  -->
<svg version="1.1" id="Layer_1" xmlns="http://www.w3.org/2000/svg" xmlns:xlink="http://www.w3.org/1999/xlink" x="0px" y="0px"
	 viewBox="0 0 197 213.1" style="enable-background:new 0 0 197 213.1;" xml:space="preserve">
<style type="text/css">
	.st0{fill:#201751;}
	.st1{fill-rule:evenodd;clip-rule:evenodd;fill:#201751;}
</style>
<g>
	<g>
		<g>
			<path class="st0" d="M6.7,175.5c-0.5,0-0.8,0-1.2-0.1c-0.3,0-0.6-0.1-0.8-0.2c-0.2-0.1-0.4-0.2-0.5-0.3c-0.1-0.1-0.2-0.3-0.2-0.5
				v-21.6c0-0.2,0.1-0.3,0.2-0.5c0.1-0.1,0.3-0.2,0.5-0.3c0.2-0.1,0.5-0.1,0.8-0.2c0.3,0,0.7-0.1,1.1-0.1c0.5,0,0.9,0,1.2,0.1
				c0.3,0,0.6,0.1,0.8,0.2c0.2,0.1,0.4,0.2,0.5,0.3c0.1,0.1,0.2,0.3,0.2,0.5v21.6c0,0.2-0.1,0.3-0.2,0.5c-0.1,0.1-0.3,0.2-0.5,0.3
				c-0.2,0.1-0.5,0.1-0.8,0.2C7.5,175.5,7.1,175.5,6.7,175.5z"/>
		</g>
		<g>
			<path class="st0" d="M44.9,175.5c-0.4,0-0.8,0-1.1-0.1c-0.3,0-0.5-0.1-0.7-0.2c-0.2-0.1-0.4-0.2-0.5-0.3
				c-0.1-0.1-0.2-0.3-0.2-0.5v-17.1l-6.1,17.1c-0.1,0.2-0.2,0.4-0.3,0.5c-0.1,0.1-0.3,0.2-0.5,0.3c-0.2,0.1-0.5,0.1-0.8,0.1
				c-0.3,0-0.6,0-1,0c-0.4,0-0.8,0-1.1,0c-0.3,0-0.6-0.1-0.8-0.2c-0.2-0.1-0.4-0.2-0.5-0.3c-0.1-0.1-0.2-0.3-0.3-0.5l-5.9-17.1v17
				c0,0.2,0,0.3-0.2,0.5c-0.1,0.1-0.3,0.3-0.5,0.3c-0.2,0.1-0.4,0.1-0.7,0.2c-0.3,0-0.7,0.1-1.1,0.1c-0.4,0-0.8,0-1.1-0.1
				c-0.3,0-0.5-0.1-0.7-0.2c-0.2-0.1-0.4-0.2-0.5-0.3c-0.1-0.1-0.2-0.3-0.2-0.5v-20.4c0-0.7,0.2-1.2,0.6-1.6
				c0.4-0.4,0.9-0.6,1.5-0.6h3c0.6,0,1.1,0,1.5,0.1c0.4,0.1,0.8,0.3,1.1,0.5c0.3,0.2,0.6,0.5,0.8,0.9c0.2,0.4,0.4,0.8,0.5,1.3
				l4.7,13l4.9-13c0.2-0.5,0.3-0.9,0.5-1.3c0.2-0.4,0.4-0.7,0.7-0.9c0.3-0.2,0.6-0.4,1-0.5c0.4-0.1,0.8-0.1,1.2-0.1h3.1
				c0.4,0,0.7,0,0.9,0.1c0.3,0.1,0.5,0.2,0.7,0.4c0.2,0.2,0.3,0.4,0.4,0.7c0.1,0.3,0.1,0.6,0.1,0.9v20.4c0,0.2,0,0.3-0.2,0.5
				c-0.1,0.1-0.3,0.3-0.5,0.3c-0.2,0.1-0.4,0.1-0.7,0.2C45.7,175.5,45.4,175.5,44.9,175.5z"/>
		</g>
		<g>
			<path class="st0" d="M60.9,175.5c-0.5,0-0.8,0-1.2-0.1c-0.3,0-0.6-0.1-0.8-0.2c-0.2-0.1-0.4-0.2-0.5-0.3
				c-0.1-0.1-0.2-0.3-0.2-0.5v-20.6c0-0.6,0.2-1.1,0.5-1.4c0.3-0.3,0.8-0.5,1.3-0.5h5.4c0.5,0,1,0,1.6,0.1c0.5,0,1.1,0.1,1.8,0.3
				c0.7,0.1,1.4,0.4,2.2,0.8c0.7,0.4,1.4,0.9,1.9,1.5c0.5,0.6,0.9,1.3,1.2,2.1c0.3,0.8,0.4,1.6,0.4,2.6c0,1.3-0.2,2.5-0.6,3.5
				c-0.4,1-1,1.9-1.8,2.6c-0.8,0.7-1.8,1.2-2.9,1.6c-1.1,0.4-2.5,0.5-4,0.5h-1.6v7c0,0.2-0.1,0.3-0.2,0.5c-0.1,0.1-0.3,0.2-0.5,0.3
				c-0.2,0.1-0.5,0.1-0.8,0.2C61.8,175.5,61.4,175.5,60.9,175.5z M63.6,163.3h1.8c0.7,0,1.3-0.1,1.8-0.3c0.5-0.2,0.8-0.4,1.1-0.8
				c0.3-0.3,0.5-0.7,0.7-1.2c0.2-0.5,0.2-1,0.2-1.5c0-0.8-0.1-1.4-0.4-1.8s-0.6-0.8-0.9-1c-0.4-0.2-0.8-0.4-1.2-0.4
				c-0.4-0.1-0.9-0.1-1.4-0.1h-1.7V163.3z"/>
		</g>
		<g>
			<path class="st0" d="M97.3,175.4H85.8c-0.5,0-0.8-0.1-1.2-0.4c-0.3-0.3-0.5-0.7-0.5-1.3v-19.9c0-0.6,0.2-1.1,0.5-1.3
				c0.3-0.3,0.7-0.4,1.2-0.4h11.4c0.2,0,0.3,0,0.4,0.1c0.1,0.1,0.2,0.2,0.3,0.4c0.1,0.2,0.1,0.4,0.1,0.6c0,0.2,0,0.5,0,0.9
				c0,0.4,0,0.6,0,0.9c0,0.3-0.1,0.5-0.2,0.6c-0.1,0.2-0.2,0.3-0.3,0.4c-0.1,0.1-0.3,0.2-0.5,0.2h-7.9v5H96c0.2,0,0.3,0.1,0.5,0.2
				c0.1,0.1,0.2,0.2,0.3,0.4c0.1,0.2,0.1,0.4,0.2,0.6c0,0.2,0,0.5,0,0.9c0,0.4,0,0.7,0,0.9c0,0.2-0.1,0.4-0.2,0.6
				c-0.1,0.2-0.2,0.3-0.3,0.4c-0.1,0.1-0.3,0.1-0.4,0.1h-6.6v5.9h8c0.2,0,0.3,0.1,0.5,0.2c0.1,0.1,0.2,0.2,0.3,0.4
				c0.1,0.2,0.1,0.4,0.2,0.6c0,0.2,0,0.5,0,0.9c0,0.4,0,0.7,0,0.9c0,0.3-0.1,0.5-0.2,0.6c-0.1,0.2-0.2,0.3-0.3,0.4
				C97.6,175.4,97.4,175.4,97.3,175.4z"/>
		</g>
		<g>
			<path class="st0" d="M123,175.5c-0.5,0-0.9,0-1.2,0c-0.3,0-0.6-0.1-0.8-0.2c-0.2-0.1-0.4-0.2-0.5-0.3c-0.1-0.1-0.2-0.3-0.2-0.4
				l-2-5.1c-0.2-0.5-0.5-1.1-0.7-1.5c-0.2-0.4-0.5-0.8-0.7-1.1c-0.3-0.3-0.6-0.5-0.9-0.6c-0.3-0.1-0.7-0.2-1.2-0.2h-1.2v8.4
				c0,0.2-0.1,0.3-0.2,0.5c-0.1,0.1-0.3,0.2-0.5,0.3c-0.2,0.1-0.5,0.1-0.8,0.2c-0.3,0-0.7,0.1-1.2,0.1c-0.5,0-0.8,0-1.2-0.1
				c-0.3,0-0.6-0.1-0.8-0.2c-0.2-0.1-0.4-0.2-0.5-0.3c-0.1-0.1-0.2-0.3-0.2-0.5v-20.8c0-0.6,0.2-1.1,0.5-1.3
				c0.3-0.3,0.7-0.4,1.2-0.4h5.9c0.6,0,1.1,0,1.5,0c0.4,0,0.8,0.1,1.1,0.1c0.9,0.1,1.8,0.4,2.6,0.7c0.8,0.3,1.4,0.8,2,1.3
				c0.5,0.5,1,1.2,1.2,1.9c0.3,0.7,0.4,1.6,0.4,2.5c0,0.8-0.1,1.5-0.3,2.2c-0.2,0.7-0.5,1.3-0.9,1.8c-0.4,0.5-0.9,1-1.5,1.4
				c-0.4,0.3-0.9,0.5-1.4,0.7c0.2,0.1,0.3,0.2,0.5,0.3c0.3,0.2,0.6,0.5,0.9,0.9c0.3,0.3,0.5,0.8,0.8,1.2c0.2,0.4,0.5,0.9,0.7,1.5
				l1.9,4.5c0.2,0.5,0.3,0.8,0.4,1c0.1,0.2,0.1,0.4,0.1,0.6c0,0.2,0,0.3-0.1,0.5c-0.1,0.2-0.2,0.3-0.5,0.4c-0.2,0.1-0.5,0.1-0.8,0.1
				C124,175.5,123.6,175.5,123,175.5z M113.5,162h2.1c0.6,0,1.2-0.1,1.6-0.2c0.5-0.1,0.8-0.4,1.1-0.6c0.3-0.3,0.5-0.6,0.7-0.9
				c0.2-0.4,0.2-0.8,0.2-1.2c0-0.7-0.2-1.3-0.5-1.8c-0.3-0.5-0.8-0.8-1.5-1c-0.2-0.1-0.5-0.1-0.8-0.1c-0.3,0-0.7-0.1-1.2-0.1h-1.8
				V162z"/>
		</g>
		<g>
			<path class="st0" d="M137.8,175.5c-0.5,0-0.8,0-1.2-0.1c-0.3,0-0.6-0.1-0.8-0.2c-0.2-0.1-0.4-0.2-0.5-0.3
				c-0.1-0.1-0.2-0.3-0.2-0.5v-21.6c0-0.2,0.1-0.3,0.2-0.5c0.1-0.1,0.3-0.2,0.5-0.3c0.2-0.1,0.5-0.1,0.8-0.2c0.3,0,0.7-0.1,1.1-0.1
				c0.5,0,0.9,0,1.2,0.1c0.3,0,0.6,0.1,0.8,0.2c0.2,0.1,0.4,0.2,0.5,0.3c0.1,0.1,0.2,0.3,0.2,0.5v21.6c0,0.2-0.1,0.3-0.2,0.5
				c-0.1,0.1-0.3,0.2-0.5,0.3c-0.2,0.1-0.5,0.1-0.8,0.2C138.7,175.5,138.3,175.5,137.8,175.5z"/>
		</g>
		<g>
			<path class="st0" d="M168.4,175.5c-0.6,0-1.1,0-1.4,0c-0.4,0-0.6-0.1-0.8-0.1c-0.2-0.1-0.4-0.2-0.5-0.3c-0.1-0.1-0.2-0.3-0.2-0.5
				l-1.5-4.4h-8.2l-1.4,4.3c-0.1,0.2-0.1,0.4-0.2,0.5c-0.1,0.2-0.3,0.3-0.5,0.4c-0.2,0.1-0.5,0.1-0.8,0.2c-0.3,0-0.7,0-1.2,0
				c-0.6,0-1,0-1.3-0.1c-0.4,0-0.6-0.2-0.8-0.4c-0.2-0.2-0.2-0.5-0.2-0.8c0-0.3,0.1-0.6,0.3-1l7.1-20.3c0.1-0.2,0.2-0.4,0.3-0.6
				c0.1-0.2,0.3-0.3,0.6-0.4c0.2-0.1,0.5-0.1,0.9-0.1c0.4,0,0.9,0,1.5,0c0.7,0,1.3,0,1.7,0c0.4,0,0.8,0.1,1,0.1
				c0.3,0.1,0.5,0.2,0.6,0.4c0.1,0.2,0.2,0.4,0.3,0.6l7.1,20.3c0.1,0.4,0.2,0.8,0.3,1.1c0.1,0.4-0.1,0.7-0.2,0.8
				c-0.2,0.2-0.5,0.3-0.9,0.3C169.5,175.5,169,175.5,168.4,175.5z M157,166.1h5.7l-2.8-8.6L157,166.1z"/>
		</g>
		<g>
			<path class="st0" d="M191.9,175.4h-10.5c-0.5,0-0.8-0.1-1.2-0.4c-0.3-0.3-0.5-0.7-0.5-1.3v-20.8c0-0.2,0.1-0.3,0.2-0.5
				c0.1-0.1,0.3-0.2,0.5-0.3c0.2-0.1,0.5-0.1,0.8-0.2c0.3,0,0.7-0.1,1.2-0.1c0.5,0,0.9,0,1.2,0.1c0.3,0,0.6,0.1,0.8,0.2
				c0.2,0.1,0.4,0.2,0.5,0.3c0.1,0.1,0.2,0.3,0.2,0.5V171h6.9c0.2,0,0.3,0.1,0.5,0.2c0.1,0.1,0.2,0.2,0.3,0.4
				c0.1,0.2,0.1,0.4,0.1,0.6c0,0.2,0,0.5,0,0.9c0,0.4,0,0.7,0,0.9c0,0.3-0.1,0.5-0.1,0.7c-0.1,0.2-0.2,0.4-0.3,0.5
				C192.3,175.4,192.1,175.4,191.9,175.4z"/>
		</g>
		<g>
			<path class="st0" d="M28.3,213.1c-1.6,0-3.1-0.3-4.3-0.7c-1.3-0.5-2.4-1.2-3.3-2.2c-0.9-1-1.6-2.2-2.1-3.7
				c-0.5-1.5-0.7-3.2-0.7-5.1c0-2,0.3-3.7,0.8-5.3c0.5-1.5,1.3-2.8,2.2-3.9c1-1.1,2.1-1.9,3.5-2.4c1.3-0.5,2.8-0.8,4.4-0.8
				c0.6,0,1.3,0.1,1.9,0.2c0.6,0.1,1.2,0.3,1.7,0.4c0.5,0.2,1,0.4,1.4,0.6c0.4,0.2,0.7,0.4,0.9,0.6c0.2,0.2,0.3,0.3,0.4,0.5
				c0.1,0.1,0.1,0.3,0.2,0.5c0,0.2,0.1,0.4,0.1,0.6c0,0.2,0,0.5,0,0.9c0,0.4,0,0.7,0,0.9s-0.1,0.5-0.1,0.7c-0.1,0.2-0.2,0.3-0.3,0.5
				c-0.3,0.3-0.8,0.2-1.3-0.2c-0.3-0.2-0.6-0.4-1-0.7c-0.4-0.2-0.9-0.5-1.5-0.7c-0.6-0.2-1.2-0.3-2-0.3c-0.9,0-1.6,0.2-2.3,0.5
				c-0.7,0.3-1.3,0.9-1.7,1.5c-0.5,0.7-0.8,1.5-1.1,2.4c-0.3,0.9-0.4,2-0.4,3.2c0,1.3,0.1,2.5,0.4,3.4c0.3,0.9,0.6,1.7,1.1,2.3
				c0.5,0.6,1.1,1,1.7,1.3c0.7,0.3,1.5,0.4,2.3,0.4c0.8,0,1.5-0.1,2-0.3c0.6-0.2,1.1-0.4,1.5-0.6c0.4-0.2,0.8-0.4,1-0.6
				c0.6-0.4,1-0.4,1.2-0.2c0.1,0.1,0.2,0.2,0.3,0.4c0.1,0.2,0.1,0.4,0.1,0.7c0,0.3,0,0.6,0,1c0,0.3,0,0.6,0,0.8c0,0.2,0,0.4-0.1,0.6
				c0,0.2-0.1,0.3-0.2,0.4c-0.1,0.1-0.2,0.3-0.3,0.4c-0.1,0.2-0.4,0.3-0.8,0.6c-0.4,0.2-0.9,0.4-1.4,0.6c-0.6,0.2-1.2,0.4-1.9,0.5
				C29.8,213,29.1,213.1,28.3,213.1z"/>
		</g>
		<g>
			<path class="st0" d="M61.6,212.8c-0.6,0-1.1,0-1.4,0c-0.4,0-0.6-0.1-0.8-0.1c-0.2-0.1-0.4-0.2-0.5-0.3c-0.1-0.1-0.2-0.3-0.2-0.5
				l-1.5-4.4H49l-1.4,4.3c-0.1,0.2-0.1,0.4-0.2,0.5c-0.1,0.2-0.3,0.3-0.5,0.4c-0.2,0.1-0.5,0.1-0.8,0.2c-0.3,0-0.7,0-1.2,0
				c-0.6,0-1,0-1.3-0.1c-0.4,0-0.6-0.2-0.8-0.4c-0.2-0.2-0.2-0.5-0.2-0.8c0-0.3,0.1-0.6,0.3-1l7.1-20.3c0.1-0.2,0.2-0.4,0.3-0.6
				c0.1-0.2,0.3-0.3,0.6-0.4c0.2-0.1,0.5-0.1,0.9-0.1c0.4,0,0.9,0,1.5,0c0.7,0,1.3,0,1.7,0c0.4,0,0.8,0.1,1,0.1
				c0.3,0.1,0.5,0.2,0.6,0.4c0.1,0.2,0.2,0.4,0.3,0.6l7.1,20.3c0.1,0.4,0.2,0.8,0.3,1.1c0.1,0.4-0.1,0.7-0.2,0.8
				c-0.2,0.2-0.5,0.3-0.9,0.3C62.7,212.8,62.2,212.8,61.6,212.8z M50.2,203.4h5.7l-2.8-8.6L50.2,203.4z"/>
		</g>
		<g>
			<path class="st0" d="M75.6,212.8c-0.5,0-0.8,0-1.2-0.1c-0.3,0-0.6-0.1-0.8-0.2c-0.2-0.1-0.4-0.2-0.5-0.3
				c-0.1-0.1-0.2-0.3-0.2-0.5v-20.6c0-0.6,0.2-1.1,0.5-1.4c0.3-0.3,0.8-0.5,1.3-0.5h5.4c0.5,0,1,0,1.6,0.1c0.5,0,1.1,0.1,1.8,0.3
				c0.7,0.1,1.4,0.4,2.2,0.8c0.7,0.4,1.4,0.9,1.9,1.5c0.5,0.6,0.9,1.3,1.2,2.1c0.3,0.8,0.4,1.6,0.4,2.6c0,1.3-0.2,2.5-0.6,3.5
				c-0.4,1-1,1.9-1.8,2.6c-0.8,0.7-1.8,1.2-2.9,1.6c-1.1,0.4-2.5,0.5-4,0.5h-1.6v7c0,0.2-0.1,0.3-0.2,0.5c-0.1,0.1-0.3,0.2-0.5,0.3
				c-0.2,0.1-0.5,0.1-0.8,0.2C76.4,212.8,76.1,212.8,75.6,212.8z M78.2,200.6H80c0.7,0,1.3-0.1,1.8-0.3c0.5-0.2,0.8-0.4,1.1-0.8
				c0.3-0.3,0.5-0.7,0.7-1.2c0.2-0.5,0.2-1,0.2-1.5c0-0.8-0.1-1.4-0.4-1.8c-0.3-0.5-0.6-0.8-0.9-1c-0.4-0.2-0.8-0.4-1.2-0.4
				c-0.4-0.1-0.9-0.1-1.4-0.1h-1.7V200.6z"/>
		</g>
		<g>
			<path class="st0" d="M101.4,212.8c-0.5,0-0.8,0-1.2-0.1c-0.3,0-0.6-0.1-0.8-0.2c-0.2-0.1-0.4-0.2-0.5-0.3
				c-0.1-0.1-0.2-0.3-0.2-0.5v-21.6c0-0.2,0.1-0.3,0.2-0.5c0.1-0.1,0.3-0.2,0.5-0.3c0.2-0.1,0.5-0.1,0.8-0.2c0.3,0,0.7-0.1,1.1-0.1
				c0.5,0,0.9,0,1.2,0.1c0.3,0,0.6,0.1,0.8,0.2c0.2,0.1,0.4,0.2,0.5,0.3c0.1,0.1,0.2,0.3,0.2,0.5v21.6c0,0.2-0.1,0.3-0.2,0.5
				c-0.1,0.1-0.3,0.2-0.5,0.3c-0.2,0.1-0.5,0.1-0.8,0.2C102.2,212.8,101.9,212.8,101.4,212.8z"/>
		</g>
		<g>
			<path class="st0" d="M121.7,212.8c-0.5,0-0.8,0-1.2-0.1c-0.3,0-0.6-0.1-0.8-0.2c-0.2-0.1-0.4-0.2-0.5-0.3
				c-0.1-0.1-0.2-0.3-0.2-0.5v-18.1h-5.4c-0.2,0-0.3-0.1-0.5-0.2c-0.1-0.1-0.2-0.2-0.3-0.4c-0.1-0.2-0.1-0.4-0.1-0.6
				c0-0.2,0-0.5,0-0.9c0-0.4,0-0.7,0-0.9c0-0.3,0.1-0.5,0.2-0.7c0.1-0.2,0.2-0.3,0.3-0.4c0.1-0.1,0.3-0.2,0.5-0.2h16.1
				c0.2,0,0.3,0.1,0.5,0.2c0.1,0.1,0.2,0.2,0.3,0.4c0.1,0.2,0.1,0.4,0.2,0.7c0,0.3,0,0.6,0,0.9c0,0.4,0,0.7,0,0.9
				c0,0.3-0.1,0.5-0.1,0.6c-0.1,0.2-0.2,0.3-0.3,0.4c-0.1,0.1-0.3,0.2-0.5,0.2h-5.4v18.1c0,0.2-0.1,0.3-0.2,0.5
				c-0.1,0.1-0.3,0.2-0.5,0.3c-0.2,0.1-0.5,0.1-0.8,0.2C122.5,212.8,122.1,212.8,121.7,212.8z"/>
		</g>
		<g>
			<path class="st0" d="M153.6,212.8c-0.6,0-1.1,0-1.4,0c-0.4,0-0.6-0.1-0.8-0.1c-0.2-0.1-0.4-0.2-0.5-0.3c-0.1-0.1-0.2-0.3-0.2-0.5
				l-1.5-4.4H141l-1.4,4.3c-0.1,0.2-0.1,0.4-0.2,0.5c-0.1,0.2-0.3,0.3-0.5,0.4c-0.2,0.1-0.5,0.1-0.8,0.2c-0.3,0-0.7,0-1.2,0
				c-0.6,0-1,0-1.3-0.1c-0.4,0-0.6-0.2-0.8-0.4c-0.2-0.2-0.2-0.5-0.2-0.8c0-0.3,0.1-0.6,0.3-1l7.1-20.3c0.1-0.2,0.2-0.4,0.3-0.6
				c0.1-0.2,0.3-0.3,0.6-0.4c0.2-0.1,0.5-0.1,0.9-0.1c0.4,0,0.9,0,1.5,0c0.7,0,1.3,0,1.7,0c0.4,0,0.8,0.1,1,0.1
				c0.3,0.1,0.5,0.2,0.6,0.4c0.1,0.2,0.2,0.4,0.3,0.6l7.1,20.3c0.1,0.4,0.2,0.8,0.3,1.1c0.1,0.4-0.1,0.7-0.2,0.8
				c-0.2,0.2-0.5,0.3-0.9,0.3C154.7,212.8,154.2,212.8,153.6,212.8z M142.2,203.4h5.7l-2.8-8.6L142.2,203.4z"/>
		</g>
		<g>
			<path class="st0" d="M177.1,212.7h-10.5c-0.5,0-0.8-0.1-1.2-0.4c-0.3-0.3-0.5-0.7-0.5-1.3v-20.8c0-0.2,0.1-0.3,0.2-0.5
				c0.1-0.1,0.3-0.2,0.5-0.3c0.2-0.1,0.5-0.1,0.8-0.2c0.3,0,0.7-0.1,1.2-0.1c0.5,0,0.9,0,1.2,0.1c0.3,0,0.6,0.1,0.8,0.2
				c0.2,0.1,0.4,0.2,0.5,0.3c0.1,0.1,0.2,0.3,0.2,0.5v18.1h6.9c0.2,0,0.3,0.1,0.5,0.2c0.1,0.1,0.2,0.2,0.3,0.4
				c0.1,0.2,0.1,0.4,0.1,0.6c0,0.2,0,0.5,0,0.9s0,0.7,0,0.9c0,0.3-0.1,0.5-0.1,0.7c-0.1,0.2-0.2,0.4-0.3,0.5
				C177.4,212.7,177.3,212.7,177.1,212.7z"/>
		</g>
	</g>
	<path class="st0" d="M159.1,72.7c7.5-5.7,14.4-12.2,20.7-19.3v30.1C172.6,80.3,165.7,76.7,159.1,72.7 M147.1,80.9
		c11.5,7.3,23.7,13.5,36.3,18.6c0.9,0.4,1.9,0.7,2.9,0.7c3.7,0,6.6-3,6.6-6.6V33.8h0c0-2.2-1.1-4.3-3-5.5c-3.1-2-7.1-1.1-9.1,1.9
		c-9,13.8-20.5,25.6-33.7,34.9l0,0c-3.9,2.7-7.9,5.3-12.1,7.6c-29.5,16.2-43.5,16.2-73,0l0.5-0.3c13.1-9.6,25.2-20.6,36-32.7
		c9.5,10.7,19.9,20.4,31.2,29.1c4.2-2.3,8.2-4.7,12.2-7.4l0.2,0.1c-14.1-10.3-27-22.5-38.3-36.2c-0.1-0.1-0.2-0.2-0.3-0.3l-0.1-0.1
		l0,0l-0.1-0.1l-0.1-0.1l0,0l-0.1-0.1c-0.4-0.4-0.9-0.7-1.4-1l0,0l-0.1-0.1l0,0l0,0l0,0l-0.1,0l-0.1,0c-0.8-0.4-1.6-0.5-2.4-0.6
		l-0.1,0l0,0l-0.1,0h0l-0.1,0l0,0l-0.1,0c-0.8,0-1.7,0.2-2.4,0.6l-0.1,0l-0.1,0l0,0l0,0l0,0l-0.1,0.1l0,0c-0.5,0.3-0.9,0.6-1.4,1
		l-0.1,0.1l0,0l-0.1,0.1l-0.1,0.1l0,0L93.6,25c-0.1,0.1-0.2,0.2-0.3,0.3C82,39.1,69,51.3,54.7,61.7c-1.6,1.2-3.2,2.3-4.8,3.4
		C36.7,55.8,25.2,44,16.2,30.2c-2-3.1-6.1-3.9-9.1-1.9c-1.9,1.3-3,3.4-3,5.5h0v59.8c0,3.7,3,6.6,6.6,6.6c1,0,2-0.2,2.9-0.7
		C24.4,95.1,34.8,90,44.8,84c-4.1-2.6-8.1-5.4-11.9-8.4c-5.1,2.8-10.3,5.5-15.6,7.9V53.4C23.5,60.5,30.5,67,38,72.7
		c3.8,2.9,7.8,5.7,11.9,8.2l0,0C89.2,105,107.8,105,147.1,80.9z"/>
	<path class="st1" d="M11.3,0C5.7,0,1.2,4.5,1.2,10.1c0,5.6,4.5,10.1,10.1,10.1c5.6,0,10.1-4.5,10.1-10.1C21.3,4.5,16.8,0,11.3,0
		 M98.5,0C93,0,88.5,4.5,88.5,10.1c0,5.6,4.5,10.1,10.1,10.1c5.6,0,10.1-4.5,10.1-10.1C108.6,4.5,104.1,0,98.5,0z M185.8,0
		c-5.6,0-10.1,4.5-10.1,10.1c0,5.6,4.5,10.1,10.1,10.1c5.6,0,10.1-4.5,10.1-10.1C195.9,4.5,191.3,0,185.8,0z"/>
	<path class="st0" d="M190.4,138c3.7,0,6.6-3,6.6-6.6c0-3.7-3-6.6-6.6-6.6H6.6c-3.7,0-6.6,3-6.6,6.6c0,3.7,3,6.6,6.6,6.6H190.4z
		 M190.4,119.1c3.7,0,6.6-3,6.6-6.6s-3-6.6-6.6-6.6H6.6c-3.7,0-6.6,3-6.6,6.6s3,6.6,6.6,6.6H190.4z"/>
</g>
</svg>
